<svg id="logo_black" xmlns="http://www.w3.org/2000/svg" viewBox="0 0 211.92 139.33">
  <title>logo</title>
  <g id="Слой_5" data-name="Слой 5">
    <g>
      <path d="M74,79H85.7c11.23,0,17.63,5.79,17.63,15.5,0,9.92-6.41,15.77-17.63,15.77H61.18V61.06H98.72v11.3H74Zm9.44,20.32c5,0,6.82-1.79,6.82-5.17S88.39,89,83.43,89H74V99.29Z" style="fill: #fff"/>
      <path d="M154.86,93.5c-1.31,10.4-9.09,17.63-21.21,17.63-15.15,0-24-10.19-24-25.48s8.82-25.49,24-25.49c11.64,0,19.15,6.75,20.8,16.12H141.15c-.83-3.24-3.65-4.82-7.51-4.82-7.16,0-10.88,5.85-10.88,14.19s3.72,14.19,10.88,14.19c4.41,0,7.44-2.2,8.06-6.34Z" style="fill: #fff"/>
      <path d="M163.4,61.06h12.81V79.17h9.92l8.47-18.12h12.88l-11,23.9,11.64,25.28H195.22l-9-19.56h-10v19.56H163.4Z" style="fill: #fff"/>
    </g>
  </g>
  <g id="icon">
    <polygon points="14.54 94.09 39.16 73.26 39.16 57.54 2.54 88.53 2.54 136.74 128.16 136.74 128.16 124.74 14.54 124.74 14.54 94.09" style="fill: #ffd425"/>
    <polygon points="106.01 47.34 124.96 47.34 69.1 1.63 2.54 53.89 2.54 73.84 14.54 73.84 14.54 59.73 68.95 17.01 106.01 47.34" style="fill: #ffd425"/>
  </g>
</svg>
